<svg xmlns="http://www.w3.org/2000/svg" width="256" height="256"><path fill-opacity=".016" d="M0 128.004v128.004l128.25-.254 128.25-.254.254-127.75L257.008 0H0v128.004m.485.496c0 70.4.119 99.053.265 63.672.146-35.38.146-92.98 0-128C.604 29.153.485 58.1.485 128.5" fill="#393946" fill-rule="evenodd"/><path fill-opacity=".016" d="M13.5 2.659C9.094 4.978 5.105 8.967 2.658 13.5.82 16.906.5 19.133.5 28.5c0 12.91 1.811 19.395 9.599 34.366l4.872 9.366-1.855 2.634c-3.773 5.358-6.203 11.352-7.859 19.386-3.819 18.532-1.032 72.879 5.265 102.634 3.266 15.436 11.868 47.034 13.843 50.853 2.506 4.846 10.902 6.864 15.412 3.704 3.15-2.206 2.81-3.751-2.171-9.866-7.175-8.809-8.958-14.743-9.038-30.077-.038-7.15.311-16.953.775-21.784l.842-8.784 6.668 6.284c3.667 3.456 9.363 8.021 12.657 10.144 3.295 2.123 7.115 4.712 8.49 5.753 18.945 14.345 44.402 26.059 61.619 28.356 6.213.829 20.483-1.434 32.068-5.084l8.186-2.58 13.314 5.538c7.322 3.046 20.513 8.004 29.313 11.017 8.8 3.014 21.961 7.564 29.247 10.112 10.549 3.689 14.318 4.571 18.5 4.33 4.486-.258 5.253-.594 5.253-2.302 0-1.617-5-4.493-26.077-15-14.342-7.15-30.836-15.865-36.654-19.367l-10.577-6.367 3.33-4.363c1.832-2.4 3.61-5.242 3.951-6.317 1.052-3.316 12.862-3.895 30.147-1.477 2.853.399 5.161.052 7.5-1.128 4.284-2.161 9.88-7.432 9.88-9.305 0-.788-1.368-3.823-3.04-6.745-1.671-2.922-3.509-7.983-4.084-11.247-1.294-7.344-3.606-11.251-8.948-15.121-4.674-3.386-13.767-7.063-17.466-7.063-1.354 0-2.471-.338-2.482-.75-.09-3.423-2.182-14.6-3.116-16.65-2.436-5.345-6.595-4.098-11.337 3.4-2.734 4.322-6.518 14.307-6.552 17.288-.039 3.371-12.894 8.428-24.386 9.593-15.256 1.546-37.875-1.588-43.21-5.987-1.816-1.498-10.787-20.32-17.342-36.387-7.584-18.587-9.743-22.298-17.959-30.872C64.665 75.682 49.682 67.451 36.5 66.345c-8.958-.752-8.689-.552-13.881-10.345-10.013-18.884-10.98-38.365-2.016-40.615 6.172-1.549 16.232 4.554 18.416 11.173 1.894 5.739 7.867 7.321 11.807 3.128 6.022-6.411-1.587-19.346-15.157-25.766C28.453.506 18.65-.051 13.5 2.659" fill="#393946" fill-rule="evenodd"/><path fill-opacity=".085" d="M15.685 1.957C10.906 3.493 6.094 7.888 3.254 13.312.808 17.981.542 19.5.592 28.5c.047 8.587.521 11.374 3.35 19.727 1.813 5.35 5.225 13 7.583 17 4.162 7.061 4.235 7.331 2.491 9.273-3.552 3.956-7.011 12.53-8.548 21.184-3.654 20.587-.93 69.97 5.643 102.316 1.911 9.401 10.854 43.147 12.77 48.187 1.504 3.957 4.903 5.813 10.642 5.813 8.728 0 9.467-2.506 2.978-10.107-7.774-9.108-8.981-13.598-8.98-33.393.001-9.35.364-19.568.807-22.707l.805-5.708 5.684 5.795c3.125 3.187 9.733 8.48 14.683 11.763 4.95 3.283 11.475 7.865 14.5 10.182 7.76 5.943 24.948 14.537 37.675 18.838 17.437 5.892 30.545 5.596 50.451-1.139 7.149-2.418 7.16-2.419 10.905-.508C176.573 231.414 244.202 255 250.007 255c2.061 0 4.27-.629 4.908-1.398 1.714-2.065-2.147-4.707-17.406-11.91-20.249-9.559-29.978-14.605-43.689-22.658l-12.679-7.447 3.404-3.768c1.872-2.073 3.683-4.878 4.023-6.235.68-2.709 1.905-3.115 12.432-4.121 4.5-.431 8.763-.104 13.856 1.062l7.356 1.683 5.547-2.854c3.051-1.57 6.421-4.032 7.49-5.471l1.942-2.616-3.552-6.884c-1.953-3.786-3.854-8.908-4.223-11.383-1.336-8.952-6.053-14.37-16.416-18.854-2.475-1.071-6.412-2.256-8.75-2.634-4.021-.651-4.25-.869-4.25-4.051 0-5.373-2.004-13.246-3.998-15.7l-1.836-2.261-2.833 2.088c-3.414 2.515-8.911 12.961-10.565 20.076-1.198 5.151-1.219 5.172-8.234 8.219-14.867 6.457-37.364 6.825-54.387.889l-6.354-2.215-5.755-11.528c-3.165-6.341-8.114-17.379-10.997-24.529C87.378 101.498 84.407 96.415 76 87.926 63.289 75.091 48.662 67.418 35.264 66.558c-6.304-.405-6.924-.66-9.122-3.746-10.652-14.964-15.397-38.63-9.097-45.376 2.14-2.29 3.062-2.57 7.18-2.181 6.567.621 12.386 4.673 14.8 10.304 2.285 5.331 5.691 7.347 9.49 5.616 9.096-4.144 1.722-20.133-12.357-26.794C30.103 1.517 20.567.388 15.685 1.957" fill="#393946" fill-rule="evenodd"/><path fill-opacity=".106" d="M17.431 1.892C5.11 5.03-1.569 18.261.969 34.5c1.841 11.778 7.49 26.625 13.217 34.738l1.934 2.739-2.489 3.262C6.41 84.706 4.488 95.129 4.544 124.5c.061 32.007 3.096 59.139 9.453 84.5 4.574 18.254 9.787 36.728 11.005 39.004 2.12 3.962 12.297 5.554 15.436 2.415 1.779-1.778 1.602-2.237-3.134-8.137C28.83 231.724 26.55 221.083 28.033 199c1.434-21.367.803-20.452 8.788-12.743 3.698 3.57 10.538 9.045 15.201 12.167S63.2 206.083 66.5 208.507c13.32 9.782 40.973 21.07 54.317 22.173 7.707.636 20.376-1.457 31.409-5.19l7.229-2.445 16.022 6.451c19.786 7.966 71.06 25.51 74.497 25.489 3.419-.021 5.444-1.453 4.721-3.337-.328-.855-11.598-6.927-25.044-13.494-13.447-6.567-29.915-15.208-36.595-19.202l-12.146-7.263 2.994-3.095c1.647-1.702 3.681-4.74 4.52-6.752l1.526-3.658 8.775-.736c5.594-.469 10.791-.321 14.335.408 7.021 1.444 11.471 1.452 14.256.024 3.627-1.86 8.684-7.154 8.684-9.091 0-1.001-1.363-4.235-3.029-7.187s-3.522-8.233-4.124-11.735c-.971-5.649-1.629-6.889-5.843-10.998-5.097-4.969-13.629-8.869-19.403-8.869h-3.325l-.655-6.399c-.849-8.286-2.859-14.011-5.069-14.443-4.071-.797-12.067 11.806-13.293 20.951-.626 4.664-.722 4.743-10.759 8.907-7.479 3.103-8.912 3.347-22 3.744-15.058.457-24.411-.858-32.939-4.63-4.328-1.914-4.745-2.498-10.941-15.31-3.542-7.326-8.752-19.17-11.576-26.32-7.657-19.379-14.776-28.841-28.907-38.416-10.611-7.19-18.533-10.325-27.478-10.872-7.804-.477-7.854-.498-10.745-4.49C13.26 45.254 9.76 18.703 19.617 14.955c6.112-2.323 17.874 4.208 19.89 11.045 1.152 3.904 2.476 5 6.044 5 6.922 0 8.644-7.15 3.627-15.054C42.772 5.855 27.833-.758 17.431 1.892" fill="#393946" fill-rule="evenodd"/></svg>