<?xml version="1.0" encoding="UTF-8" standalone="no"?><!DOCTYPE svg PUBLIC "-//W3C//DTD SVG 1.1//EN" "http://www.w3.org/Graphics/SVG/1.1/DTD/svg11.dtd"><svg width="100%" height="100%" viewBox="0 0 1028 280" version="1.1" xmlns="http://www.w3.org/2000/svg" xmlns:xlink="http://www.w3.org/1999/xlink" xml:space="preserve" xmlns:serif="http://www.serif.com/" style="fill-rule:evenodd;clip-rule:evenodd;stroke-linecap:round;stroke-linejoin:round;stroke-miterlimit:1.5;"><rect id="Artboard1" x="0" y="0" width="1027.72" height="279.273" style="fill:none;"/><g><g id="eyes"><g><path d="M530.863,128.47c4.449,0.517 14.411,4.226 14.411,10.239c-0,6.014 -9.023,12.613 -14.871,12.34c-8.661,-0.406 -12.222,-4.767 -12.916,-7.746c-0.934,-4.014 3.105,-16.025 13.376,-14.833Z" style="fill:#eef4f8;"/><path d="M530.468,142.358c2.515,0.303 8.145,-5.194 8.145,-1.666c0,3.529 -5.099,7.401 -8.405,7.24c-4.896,-0.237 -6.908,-2.797 -7.3,-4.544c-0.529,-2.356 1.755,-1.729 7.56,-1.03Z" style="fill:#eef4f8;"/><path d="M526.764,135.223c-1.532,0.484 -4.179,3.679 -4.626,2.473c-0.447,-1.205 2.09,-3.721 4.074,-4.439c2.937,-1.063 4.456,-0.659 4.911,-0.153c0.612,0.681 -0.824,1.001 -4.359,2.119Z" style="fill:#eef4f8;"/></g><g><path d="M473.822,128.47c-4.449,0.517 -14.411,4.226 -14.411,10.239c-0,6.014 9.022,12.613 14.871,12.34c8.661,-0.406 12.222,-4.767 12.915,-7.746c0.935,-4.014 -3.105,-16.025 -13.375,-14.833Z" style="fill:#eef4f8;"/><path d="M474.217,142.358c-2.515,0.303 -8.146,-5.194 -8.146,-1.666c0,3.529 5.1,7.401 8.406,7.24c4.895,-0.237 6.908,-2.797 7.3,-4.544c0.528,-2.356 -1.755,-1.729 -7.56,-1.03Z" style="fill:#eef4f8;"/><path d="M474.149,133.999c1.48,0.626 3.817,4.053 4.375,2.895c0.558,-1.159 -1.734,-3.9 -3.641,-4.8c-2.825,-1.333 -4.376,-1.072 -4.876,-0.611c-0.673,0.621 0.726,1.073 4.142,2.516Z" style="fill:#eef4f8;"/></g></g><g><path d="M19.494,268.303c0,-0 10.031,-3.649 10.031,-58.152l0,-193.215l23.241,-0l123.695,210.717l-0,-210.717l31.365,-0c0,-0 -8.257,4.775 -8.257,50.038l0,201.329l-22.884,-0l-124.052,-213.561l0,213.561l-33.139,-0Z" style="fill:#eef4f8;fill-rule:nonzero;"/><path d="M314.756,268.303c-0,-0 -45.31,-153.87 -60.965,-195.541c-15.795,-42.045 -34.851,-57.539 -34.28,-55.826l37.034,-0l56.092,182.609c4.515,14.632 8.294,28.349 11.336,41.152c3.337,-13.717 7.214,-27.434 11.631,-41.152l58.301,-182.609l34.349,-0c-0,-0 -17.616,10.902 -30.216,48.151c-14.255,42.137 -65.606,203.216 -65.606,203.216l-17.676,-0Z" style="fill:#eef4f8;fill-rule:nonzero;"/><path d="M396.092,268.303c0,-0 9.812,-7.748 23.564,-35.409c34.471,-69.336 73.468,-215.958 73.468,-215.958l15.861,-0c-0,-0 44.711,148.54 77.994,219.054c12.077,25.586 20.148,32.313 20.148,32.313l-31.558,-0c-0,-0 -21.102,-75.584 -33.298,-96.432c-1.317,-2.251 -0.611,13.061 -15.542,15.989c-8.233,1.615 -13.995,-6.162 -24.189,-6.189c-7.301,-0.02 -18.392,8.978 -25.092,6.707c-13.68,-4.635 -14.527,-22.621 -17.607,-17.445c-12.349,20.753 -31.891,97.37 -31.891,97.37l-31.858,-0Zm69.395,-110.946c-2.475,7.778 3.931,23.896 12.596,25.047c4.841,0.643 11.68,-3.102 15.348,-5.428c2.261,-1.435 5.184,-2.932 9.152,-2.937c2.994,-0.004 6.171,1.678 9.115,3.589c3.922,2.544 9.533,4.906 13.857,4.981c9.477,0.165 13.7,-11.633 12.152,-18.994c-3.207,-15.25 -22.195,-68.149 -22.195,-68.149c-6.871,-21.147 -11.974,-38.522 -15.312,-52.125c-2.748,16.118 -6.625,32.121 -11.63,48.01c-0,0 -18.379,51.225 -23.083,66.006Z" style="fill:#eef4f8;fill-rule:nonzero;"/><path d="M514.49,184.007c-0,0 -11.024,9.928 -24.005,-0.147" style="fill:none;stroke:#eef4f8;stroke-width:4.55px;"/><path d="M503.279,167.444l-1.258,0.026l-0.733,12.905c-0,-0 0.805,-0.124 1.203,-0.121c0.416,0.003 1.347,0.166 1.347,0.166l-0.559,-12.976Z" style="fill:#eef4f8;"/><path d="M502.638,167.576c-4.51,-0 -9.392,-7.384 -7.795,-9.108c2.106,-2.274 3.511,1.46 8.021,1.46c4.51,0 4.335,-3.885 7.645,-1.535c1.916,1.36 -3.361,9.183 -7.871,9.183Z" style="fill:#eef4f8;"/><path d="M618.655,268.648c0,-0 8.199,-10.106 10.106,-24.606c5.852,-44.495 0.856,-135.842 2.765,-195.843c0.364,-11.42 10.061,-19.238 29.439,-26.061c12.055,-4.245 17.784,1.94 17.784,1.94c19.238,-0 41.958,6.828 57.171,18.419c4.977,3.792 9.246,32.39 17.685,38.977c7.863,6.137 26.329,12.355 33.615,18.237c1.895,1.53 2.036,6.859 -0.05,17.143c-3.028,14.93 -8.265,19.894 -11.305,21.243c-11.147,4.946 -27.394,9.593 -47.221,13.423c-8.082,1.561 1.98,0.928 11.769,12.851c12.419,15.127 19.462,33.198 27.38,44.521c6.723,9.614 12.888,25.033 23.796,36.496c13.694,14.389 31.691,23.953 31.691,23.953l-41.146,-1.038l-28.561,-52.297c-8.343,-15.089 -15.213,-26.634 -20.611,-34.636c-5.399,-8.002 -10.232,-13.603 -14.502,-16.803c-4.269,-3.201 -8.613,-5.43 -13.029,-6.688c-3.239,-0.8 -8.539,-1.2 -15.9,-1.2c-0,0 -31.022,-0.63 -34.629,11.524c-5.521,18.604 1.503,100.1 1.503,100.1l-37.75,0.345Zm37.554,-136.077c1.742,9.687 39.348,10.443 54.716,9.494c10.232,-0.632 15.037,-0.365 26.926,-2.032c7.911,-1.109 25.054,-3.799 33.746,-9.794c5.894,-4.066 8.966,-18.244 7.067,-23.859c-2.777,-8.211 -32.963,-13.007 -38.293,-21.336c-7.161,-11.19 -7.973,-30.06 -14.899,-33.996c-9.227,-5.243 -27.295,-15.51 -42.546,-16.971c-3.353,-0.322 15.489,25.44 -0.787,40.81c-25.929,24.487 -24.779,-18.057 -27.829,-12.917c-8.904,15.004 -2.651,45.292 1.899,70.601Z" style="fill:#eef4f8;fill-rule:nonzero;"/><path d="M830.311,184.909l35.086,-0.53c-0,0 -1.99,7.418 13.772,27.966c5.201,6.781 10.426,15.555 20.664,22.241c22.134,14.456 46.774,12.248 68.181,-3.762c14.433,-10.794 19.529,-38.451 7.801,-53.991c-5.503,-7.293 -14.065,-9.004 -21.428,-12.266c-26.085,-11.843 -54.157,-14.012 -79.173,-29.478c-9.038,-5.514 -18.178,-11.747 -23.958,-21.876c-10.487,-18.379 -10.85,-45.934 -0.357,-64.413c11.735,-20.661 35.059,-31.084 55.397,-33.116c24.502,-2.449 55.06,-0.771 71.583,23.994c10.874,16.298 16.012,37.649 30.712,50.421l-35.213,0.052c-0.933,-10.077 -1.75,-21.903 -6.963,-30.637c-17.938,-30.059 -61.586,-29.828 -85.884,-11.557c-16.28,12.243 -18.22,44.164 -3.868,59.12c25.434,26.977 62.617,23.024 92.265,38.72c9.717,5.216 20.825,10.037 27.374,20.662c15.338,24.885 8.377,65.07 -12.918,82.7c-17.822,14.756 -38.134,21.154 -59.406,18.815c-17.556,-1.93 -27.122,-5.142 -39.553,-18.524c-12.173,-13.104 -21.02,-25.425 -27.136,-33.058c-6.196,-7.732 -26.978,-31.483 -26.978,-31.483Z" style="fill:#eef4f8;fill-rule:nonzero;"/></g><path d="M709.519,83.077c-0.332,-0 4.038,8.304 8.966,11.471c3.871,2.488 6.83,3.669 7.854,3.651c1.519,-0.027 4.778,-5.634 4.778,-13.016c-0,-6.554 -4.92,-12.731 -6.139,-12.656c-1.625,0.099 -5.502,-0.252 -8.962,2.288c-3.715,2.728 -6.497,8.262 -6.497,8.262Z" style="fill:#eef4f8;"/><path d="M524.574,173.295c-0,0 14.654,-11.661 46.34,0.956" style="fill:none;stroke:#eef4f8;stroke-width:2.09px;"/><path d="M527.291,170.095c0.033,0.03 19.833,-14.104 50.758,-2.037" style="fill:none;stroke:#eef4f8;stroke-width:2.09px;"/><path d="M526.077,176.382c0,0 18.41,-4.843 44.477,5.093" style="fill:none;stroke:#eef4f8;stroke-width:2.09px;"/><path d="M478.274,172.53c-0,-0 -22.476,-12.257 -48.331,-7.617" style="fill:none;stroke:#eef4f8;stroke-width:2.09px;"/><path d="M475.403,168.87c-0.032,0.031 -22.435,-13.951 -46.931,-9.538" style="fill:none;stroke:#eef4f8;stroke-width:2.09px;"/><path d="M474.168,175.158c-0,-0 -27.804,-10.859 -44.63,-0.725" style="fill:none;stroke:#eef4f8;stroke-width:2.09px;"/><path d="M724.719,80.919c0.75,1.483 -0.762,6.099 1.061,5.358c1.823,-0.741 2.62,-4.69 1.757,-6.689c-1.277,-2.959 -3.074,-3.659 -4.069,-3.533c-1.342,0.17 -0.48,1.442 1.251,4.864Z" style="fill:#eef4f8;"/></g></svg>