<?xml version="1.0" encoding="UTF-8" standalone="no"?>
<!DOCTYPE svg PUBLIC "-//W3C//DTD SVG 1.1//EN" "http://www.w3.org/Graphics/SVG/1.1/DTD/svg11.dtd">
<svg width="100%" height="100%" viewBox="0 0 1280 720" version="1.1" xmlns="http://www.w3.org/2000/svg" xmlns:xlink="http://www.w3.org/1999/xlink" xml:space="preserve" xmlns:serif="http://www.serif.com/" style="fill-rule:evenodd;clip-rule:evenodd;stroke-linecap:round;stroke-linejoin:round;stroke-miterlimit:1.5;">
    <g id="Layer1">
    </g>
    <g>
        <g id="eyes" transform="matrix(1.27438,0,0,1.61451,-168.493,-218.893)">
            <g>
                <g transform="matrix(1.31937,0,0,1.18818,-202.022,-67.2352)">
                    <path d="M640.098,342.347C642.828,342.624 648.942,344.62 648.942,347.854C648.942,351.089 643.405,354.639 639.815,354.492C634.5,354.274 632.314,351.928 631.889,350.326C631.315,348.166 633.795,341.705 640.098,342.347Z" style="fill:rgb(100,100,100);"/>
                </g>
                <g transform="matrix(0.745738,0,0,0.697179,164.841,104.828)">
                    <path d="M640.098,349.382C642.828,349.66 648.942,344.62 648.942,347.854C648.942,351.089 643.405,354.639 639.815,354.492C634.5,354.274 632.314,351.928 631.889,350.326C631.315,348.166 633.795,348.741 640.098,349.382Z" style="fill:rgb(100,100,100);"/>
                </g>
                <g transform="matrix(-0.475258,0.0197287,-0.0105418,-0.253949,950.155,419.998)">
                    <path d="M640.098,349.382C642.828,349.66 648.942,344.62 648.942,347.854C648.942,351.089 643.405,354.639 639.815,354.492C634.5,354.274 632.314,351.928 631.889,350.326C631.315,348.166 633.795,348.741 640.098,349.382Z" style="fill:white;"/>
                </g>
            </g>
            <g transform="matrix(-1,0,0,1,1238.82,0)">
                <g transform="matrix(1.31937,0,0,1.18818,-202.022,-67.2352)">
                    <path d="M640.098,342.347C642.828,342.624 648.942,344.62 648.942,347.854C648.942,351.089 643.405,354.639 639.815,354.492C634.5,354.274 632.314,351.928 631.889,350.326C631.315,348.166 633.795,341.705 640.098,342.347Z" style="fill:rgb(100,100,100);"/>
                </g>
                <g transform="matrix(0.745738,0,0,0.697179,164.841,104.828)">
                    <path d="M640.098,349.382C642.828,349.66 648.942,344.62 648.942,347.854C648.942,351.089 643.405,354.639 639.815,354.492C634.5,354.274 632.314,351.928 631.889,350.326C631.315,348.166 633.795,348.741 640.098,349.382Z" style="fill:rgb(100,100,100);"/>
                </g>
                <g transform="matrix(-0.475258,0.0197287,-0.0105418,-0.253949,950.155,419.998)">
                    <path d="M640.098,349.382C642.828,349.66 648.942,344.62 648.942,347.854C648.942,351.089 643.405,354.639 639.815,354.492C634.5,354.274 632.314,351.928 631.889,350.326C631.315,348.166 633.795,348.741 640.098,349.382Z" style="fill:rgb(234,234,234);"/>
                </g>
            </g>
        </g>
        <g transform="matrix(0.732346,0,0,0.852927,-104.6,60.394)">
            <path d="M331.939,481.763C331.939,481.763 345.636,477.485 345.636,413.585L345.636,187.052L377.37,187.052L546.273,434.104L546.273,187.052L589.101,187.052C589.101,187.052 577.826,192.65 577.826,245.719L577.826,481.763L546.578,481.763L377.189,231.377L377.189,481.763L331.939,481.763Z" style="fill:rgb(100,100,100);fill-rule:nonzero;"/>
            <path d="M735.111,481.763C735.111,481.763 673.241,301.362 651.865,252.504C630.297,203.21 604.277,185.044 605.057,187.052L655.625,187.052L732.218,401.15C738.383,418.304 743.542,434.387 747.697,449.397C752.254,433.315 757.548,417.232 763.578,401.15L843.187,187.052L890.09,187.052C890.09,187.052 866.036,199.835 848.83,243.506C829.366,292.909 759.247,481.763 759.247,481.763L735.111,481.763Z" style="fill:rgb(100,100,100);fill-rule:nonzero;"/>
            <path d="M846.174,481.763C846.174,481.763 859.571,472.68 878.349,440.249C925.418,358.957 978.667,187.052 978.667,187.052L1000.33,187.052C1000.33,187.052 1061.38,361.205 1106.83,443.879C1123.32,473.877 1134.34,481.763 1134.34,481.763L1091.24,481.763C1091.24,481.763 1062.43,393.146 1045.78,368.703C1043.98,366.064 1044.94,384.017 1024.56,387.45C1013.31,389.343 1005.45,380.225 991.525,380.193C981.556,380.17 966.412,390.719 957.263,388.057C938.583,382.622 937.427,361.535 933.221,367.603C916.359,391.935 889.674,481.763 889.674,481.763L846.174,481.763ZM940.931,351.687C937.551,360.805 946.298,379.703 958.129,381.052C964.74,381.806 974.079,377.416 979.087,374.688C982.174,373.006 986.166,371.251 991.583,371.245C995.673,371.241 1000.01,373.212 1004.03,375.453C1009.38,378.436 1017.05,381.205 1022.95,381.293C1035.89,381.486 1041.66,367.654 1039.55,359.024C1035.17,341.144 1009.24,279.124 1009.24,279.124C999.857,254.33 992.887,233.959 988.331,218.011C984.578,236.908 979.284,255.67 972.449,274.299C972.449,274.299 947.353,334.357 940.931,351.687Z" style="fill:rgb(100,100,100);fill-rule:nonzero;"/>
            <g transform="matrix(1.29296,0,0,1.17243,186.644,-73.2716)">
                <path d="M635.133,389.109C635.133,389.109 623.49,399.036 609.781,388.961" style="fill:none;stroke:rgb(100,100,100);stroke-width:4.67px;"/>
            </g>
            <g transform="matrix(1.62924,0,0,2.02486,-21.3141,-398.563)">
                <path d="M622.282,376.361L621.228,376.375L620.613,383.847C620.613,383.847 621.288,383.776 621.621,383.777C621.97,383.779 622.751,383.874 622.751,383.874L622.282,376.361Z" style="fill:rgb(100,100,100);"/>
            </g>
            <g transform="matrix(-1.74722,-1.83723e-16,1.81155e-16,-1.27012,2068.72,890.504)">
                <path d="M616.439,414.793C619.964,414.793 623.779,421.609 622.531,423.2C620.885,425.3 619.787,421.853 616.263,421.853C612.738,421.853 612.875,425.439 610.288,423.27C608.791,422.014 612.914,414.793 616.439,414.793Z" style="fill:rgb(100,100,100);"/>
            </g>
            <path d="M1150.08,482.167C1150.08,482.167 1161.27,470.319 1163.88,453.318C1171.87,401.151 1167.65,282.681 1167.65,212.299C1167.65,179.177 1160.22,183.81 1160.22,183.81C1160.22,183.81 1183.5,183.684 1191.86,184.063C1198.05,184.345 1202.08,184.832 1210.35,186.087C1225.84,188.438 1235.07,190.619 1235.07,190.619C1262.4,197.714 1289.43,203.432 1310.2,217.021C1317,221.467 1322.83,254.995 1334.35,262.719C1345.08,269.914 1370.3,277.204 1380.25,284.101C1382.84,285.894 1383.03,292.143 1380.18,304.199C1376.05,321.704 1368.89,327.524 1364.74,329.106C1349.52,334.904 1327.34,340.352 1300.26,344.843C1289.23,346.673 1302.97,345.931 1316.33,359.91C1333.29,377.645 1342.91,398.833 1353.72,412.107C1362.9,423.38 1371.32,441.457 1386.21,454.896C1404.91,471.767 1429.49,482.98 1429.49,482.98L1373.3,481.763L1334.31,420.449C1322.91,402.758 1313.53,389.222 1306.16,379.84C1298.79,370.459 1292.19,363.892 1286.36,360.139C1280.53,356.387 1274.6,353.773 1268.57,352.299C1264.14,351.361 1256.91,350.892 1246.86,350.892C1246.86,350.892 1204.5,350.153 1199.57,364.403C1192.03,386.215 1201.62,481.763 1201.62,481.763L1150.08,482.167ZM1201.36,322.626C1203.74,333.984 1255.09,334.871 1276.07,333.758C1290.04,333.017 1296.6,333.33 1312.84,331.376C1323.64,330.076 1347.05,326.921 1358.92,319.892C1366.96,315.125 1371.16,298.502 1368.57,291.919C1364.77,282.292 1323.56,276.67 1316.28,266.905C1306.5,253.785 1305.39,231.661 1295.93,227.047C1283.34,220.899 1258.66,208.862 1237.84,207.149C1233.26,206.772 1258.99,236.975 1236.76,254.996C1201.36,283.705 1202.93,233.826 1198.76,239.851C1186.61,257.442 1195.14,292.954 1201.36,322.626Z" style="fill:rgb(100,100,100);fill-rule:nonzero;"/>
            <path d="M1439.09,383.99L1487,383.368C1487,383.368 1484.28,392.065 1505.8,416.156C1512.9,424.107 1520.04,434.394 1534.02,442.233C1564.24,459.181 1597.89,456.593 1627.12,437.822C1646.83,425.166 1653.78,392.74 1637.77,374.521C1630.26,365.97 1618.57,363.965 1608.51,360.139C1572.89,346.255 1534.56,343.712 1500.4,325.579C1488.06,319.114 1475.58,311.807 1467.69,299.931C1453.37,278.383 1452.87,246.076 1467.2,224.411C1483.22,200.187 1515.07,187.967 1542.84,185.584C1576.3,182.713 1618.03,184.68 1640.59,213.716C1655.44,232.824 1662.45,257.857 1682.53,272.831L1634.44,272.892C1633.17,261.077 1632.05,247.212 1624.93,236.972C1600.44,201.73 1540.84,202.001 1507.66,223.422C1485.43,237.776 1482.78,275.202 1502.38,292.737C1537.11,324.365 1587.88,319.731 1628.37,338.133C1641.63,344.249 1656.8,349.901 1665.75,362.358C1686.69,391.535 1677.18,438.648 1648.11,459.318C1623.77,476.618 1596.03,484.12 1566.99,481.378C1543.02,479.115 1529.95,475.349 1512.98,459.659C1496.36,444.296 1484.28,429.85 1475.93,420.901C1467.47,411.835 1439.09,383.99 1439.09,383.99Z" style="fill:rgb(100,100,100);fill-rule:nonzero;"/>
        </g>
        <g transform="matrix(0.00102671,-1.91684,0.94235,0.00050475,571.531,1833.44)">
            <path d="M807.321,271.83C807.321,271.478 802.99,276.119 801.339,281.351C800.042,285.46 799.427,288.6 799.437,289.688C799.451,291.299 802.377,294.754 806.228,294.75C809.647,294.746 812.868,289.522 812.829,288.228C812.777,286.504 812.959,282.39 811.633,278.719C810.209,274.778 807.321,271.83 807.321,271.83Z" style="fill:rgb(102,102,102);"/>
        </g>
        <g transform="matrix(0.9439,0.330023,-0.245775,1.03885,79.6653,-140.408)">
            <path d="M671.396,284.089C671.396,284.089 683.035,269.167 716.961,270.534" style="fill:none;stroke:rgb(104,104,104);stroke-width:1.92px;"/>
        </g>
        <g transform="matrix(0.981191,0.053105,-0.0395483,1.07989,2.13508,30.8809)">
            <path d="M667.953,284.048C667.987,284.075 687.6,270.022 719.506,279.627" style="fill:none;stroke:rgb(104,104,104);stroke-width:2px;"/>
        </g>
        <g transform="matrix(0.870057,0.55396,-0.412545,0.95758,172.215,-267.038)">
            <path d="M677.68,283.018C677.68,283.018 692.403,269.443 719.775,263.985" style="fill:none;stroke:rgb(104,104,104);stroke-width:1.87px;"/>
        </g>
        <g transform="matrix(-0.9439,0.330023,0.245775,1.03885,1163.48,-140.408)">
            <path d="M673.466,282.695C673.466,282.695 692.621,264.812 718.994,260.9" style="fill:none;stroke:rgb(104,104,104);stroke-width:1.92px;"/>
        </g>
        <g transform="matrix(-0.981191,0.053105,0.0395483,1.07989,1241.01,30.8809)">
            <path d="M670.399,282.794C670.433,282.821 692.699,268.779 717.779,271.632" style="fill:none;stroke:rgb(104,104,104);stroke-width:2px;"/>
        </g>
        <g transform="matrix(-0.870057,0.55396,0.412545,0.95758,1070.93,-267.038)">
            <path d="M681.623,279.459C681.623,279.459 702.481,256.053 721.595,255.578" style="fill:none;stroke:rgb(104,104,104);stroke-width:1.87px;"/>
        </g>
        <g transform="matrix(0.217276,0.566242,0.563509,-0.229119,507.762,1.5191)">
            <path d="M640.098,349.382C642.828,349.66 648.942,344.62 648.942,347.854C648.942,351.089 643.405,354.639 639.815,354.492C634.5,354.274 632.314,351.928 631.889,350.326C631.315,348.166 633.795,348.741 640.098,349.382Z" style="fill:rgb(234,234,234);"/>
        </g>
    </g>
</svg>
